<svg width="14" height="15" viewBox="0 0 14 15" fill="none" xmlns="http://www.w3.org/2000/svg">
<g id="Group">
<path id="Vector" d="M13.2509 2.7704L10.625 0.144428C10.5327 0.0520648 10.4076 0.00011492 10.277 0H5.02507C4.54642 0.00052131 4.08753 0.190895 3.74907 0.529352C3.41061 0.867808 3.22024 1.3267 3.21972 1.80535V2.62597H2.3991C1.92045 2.62649 1.46156 2.81686 1.1231 3.15532C0.784645 3.49378 0.594271 3.95267 0.59375 4.43132V12.3092C0.594271 12.7879 0.784645 13.2468 1.1231 13.5852C1.46156 13.9237 1.92045 14.1141 2.3991 14.1146H8.96403C9.44268 14.1141 9.90157 13.9237 10.24 13.5852C10.5785 13.2468 10.7689 12.7879 10.7694 12.3092V11.4886H11.59C12.0686 11.4881 12.5275 11.2977 12.866 10.9593C13.2045 10.6208 13.3948 10.1619 13.3953 9.68326V3.11834C13.3952 2.9878 13.3433 2.86265 13.2509 2.7704ZM10.7694 1.68062L11.7147 2.62597H10.7694V1.68062ZM9.78464 12.3092C9.78464 12.7622 9.41701 13.1298 8.96403 13.1298H2.3991C1.94612 13.1298 1.57849 12.7622 1.57849 12.3092V4.43132C1.57849 3.97834 1.94612 3.61071 2.3991 3.61071H3.21972V9.68326C3.22024 10.1619 3.41061 10.6208 3.74907 10.9593C4.08753 11.2977 4.54642 11.4881 5.02507 11.4886H9.78464V12.3092ZM11.59 10.5039H5.02507C4.57209 10.5039 4.20446 10.1362 4.20446 9.68326V1.80535C4.20446 1.35237 4.57209 0.984738 5.02507 0.984738H9.78464V3.11834C9.78464 3.39013 10.0052 3.61071 10.277 3.61071H12.4106V9.68326C12.4106 10.1362 12.043 10.5039 11.59 10.5039Z" fill="#757575"/>
<path id="Vector_2" d="M10.277 7.87791H6.33807C6.20749 7.87791 6.08225 7.92978 5.98991 8.02212C5.89758 8.11446 5.8457 8.23969 5.8457 8.37028C5.8457 8.50086 5.89758 8.6261 5.98991 8.71843C6.08225 8.81077 6.20749 8.86265 6.33807 8.86265H10.277C10.4076 8.86265 10.5328 8.81077 10.6252 8.71843C10.7175 8.6261 10.7694 8.50086 10.7694 8.37028C10.7694 8.23969 10.7175 8.11446 10.6252 8.02212C10.5328 7.92978 10.4076 7.87791 10.277 7.87791ZM10.277 5.25194H6.33807C6.20749 5.25194 6.08225 5.30381 5.98991 5.39615C5.89758 5.48849 5.8457 5.61372 5.8457 5.74431C5.8457 5.87489 5.89758 6.00013 5.98991 6.09246C6.08225 6.1848 6.20749 6.23668 6.33807 6.23668H10.277C10.4076 6.23668 10.5328 6.1848 10.6252 6.09246C10.7175 6.00013 10.7694 5.87489 10.7694 5.74431C10.7694 5.61372 10.7175 5.48849 10.6252 5.39615C10.5328 5.30381 10.4076 5.25194 10.277 5.25194Z" fill="#757575"/>
</g>
</svg>
